<svg viewBox="0 0 55.6053 54.5" fill="none" xmlns="http://www.w3.org/2000/svg" xmlns:xlink="http://www.w3.org/1999/xlink" x="0" y="0"><g id="Logo svg">
<g id="Vector 1">
<path d="M22.415,9.671c-4.9895,-0.072 -7.0803,3.344 -7.5021,5.061c0.2893,0.217 0.4821,0.091 0.5423,0c2.0969,-2.531 5.9348,-2.38 7.5918,-1.988c-0.723,5.567 -6.929,15.455 -9.9417,19.703c8.2427,-5.061 14.1597,-14.823 16.0877,-19.071c1.446,0.579 3.796,0.482 4.79,0.362c4.7,-0.362 7.08,-2.621 7.683,-3.706c-2.748,2.242 -7.954,1.838 -10.213,1.356c-1.663,-0.361 -6.719,-1.295 -9.038,-1.717z" fill="#FDA600"/>
<path d="M25.759,20.155l2.35,-3.073c3.036,-0.434 4.458,0.603 4.79,1.175c0.868,2.531 -2.832,5.694 -4.79,6.959c4.338,-4.338 0.241,-5.181 -2.35,-5.061z" fill="#FDA600"/>
<path d="M45.643,29.555c7.664,-6.291 5.784,-11.418 3.886,-13.196c-0.688,-0.868 1.581,0.121 2.802,0.723c3.687,2.675 3.525,6.538 2.982,8.134c-2.241,5.568 -5.995,8.466 -7.592,9.219c-0.072,3.616 -0.512,5.242 -0.723,5.604h-7.411c-0.578,0.434 -5.302,2.35 -7.592,3.254l4.79,-0.723c-1.518,8.098 -5.634,11.327 -7.501,11.93h-1.266v-10.303l-2.079,0.361v9.942h-0.994c-3.904,-1.229 -6.2059,-6.116 -6.8687,-8.405h-1.9884c0.3615,1.952 2.8018,5.935 3.9771,7.682c-4.4832,-1.157 -8.2552,-5.302 -9.5808,-7.231c-7.7366,-0.361 -10.2131,-1.476 -10.4842,-1.988c8.8935,0.434 21.782,-3.193 27.114,-5.061c7.52,-2.097 15.486,-7.502 18.529,-9.942z" fill="#FDA600"/>
</g>
<circle id="Ellipse 1" cx="27.837999999999994" cy="6.326999999999998" r="2.89221" fill="#FDA600"/>
<g id="Vector 2">
<path d="M16.811,35.158h-6.3267v7.954l6.3267,-1.356z" fill="#D9D9D9"/>
<path d="M19.5224,41.214v-10.484h6.1456v8.586z" fill="#D9D9D9"/>
<path d="M28.561,38.231v-12.653h6.055v10.032z" fill="#D9D9D9"/>
<path d="M37.418,34.164v-11.388h5.784l0.271,7.502z" fill="#D9D9D9"/>
</g>
<path id="Star 1" d="M46.095,0l1.213,4.801l4.51,-2.045l-2.997,3.943l4.411,2.251l-4.951,0.114l0.99,4.853l-3.176,-3.8l-3.177,3.8l0.99,-4.853l-4.951,-0.114l4.411,-2.251l-2.997,-3.943l4.51,2.045z" fill="#FDA600"/>
<path id="Vector 3" d="M46.095,42.118h-6.96c-0.723,4.989 -3.736,9.972 -5.152,11.84c8.099,-3.254 11.449,-9.249 12.112,-11.84z" fill="#FDA600"/>
</g></svg>