<svg viewBox="0 0 40 40" fill="none" xmlns="http://www.w3.org/2000/svg" xmlns:xlink="http://www.w3.org/1999/xlink" x="0" y="0"><g id="Logo svg_2">
<g id="Vector 1_2">
<path d="M16.1241,7.098c-3.5889,-0.053 -5.093,2.454 -5.3964,3.715c0.2081,0.159 0.3468,0.066 0.3901,0c1.5084,-1.858 4.2694,-1.747 5.4614,-1.46c-0.5201,4.087 -4.9846,11.344 -7.1518,14.461c5.9295,-3.714 10.1859,-10.879 11.5729,-13.996c1.0403,0.424 2.7307,0.354 3.4459,0.265c3.3808,-0.265 5.0929,-1.924 5.5264,-2.72c-1.9765,1.645 -5.7215,1.349 -7.3469,0.995c-1.1963,-0.265 -4.8329,-0.95 -6.5016,-1.26z" fill="#FDA600"/>
<path d="M18.5297,14.793l1.6904,-2.256c2.1846,-0.318 3.2075,0.443 3.4459,0.863c0.6241,1.857 -2.0372,4.179 -3.4459,5.108c3.1208,-3.184 0.1734,-3.804 -1.6904,-3.715z" fill="#FDA600"/>
<path d="M32.8333,21.692c5.5134,-4.617 4.161,-8.381 2.7957,-9.685c-0.4953,-0.637 1.1373,0.088 2.0155,0.53c2.6527,1.964 2.5356,4.799 2.1455,5.971c-1.6124,4.086 -4.3127,6.213 -5.4613,6.766c-0.052,2.653 -0.3685,3.847 -0.5202,4.113h-5.3313c-0.4161,0.318 -3.8143,1.724 -5.4614,2.388l3.4459,-0.531c-1.0923,5.944 -4.0527,8.314 -5.3964,8.756h-0.9102v-7.562l-1.4954,0.265v7.297h-0.7152c-2.8087,-0.902 -4.4644,-4.489 -4.9412,-6.169h-1.4304c0.2601,1.433 2.0155,4.356 2.8607,5.638c-3.2248,-0.849 -5.9381,-3.891 -6.8917,-5.306c-5.5654,-0.266 -7.3469,-1.084 -7.5419,-1.46c6.3976,0.319 15.669,-2.344 19.5049,-3.714c5.4094,-1.539 11.1395,-5.506 13.3284,-7.297z" fill="#FDA600"/>
</g>
<ellipse id="Ellipse 1_2" cx="20.025100000000002" cy="4.643500000000003" rx="2.08053" ry="2.12272" fill="#FDA600"/>
<g id="Vector 2_2">
<path d="M12.093,25.804h-4.5511v5.838l4.5511,-0.995z" fill="#D9D9D9"/>
<path d="M14.0435,30.249v-7.695h4.4211v6.302z" fill="#D9D9D9"/>
<path d="M20.5452,28.06v-9.287h4.3561v7.363z" fill="#D9D9D9"/>
<path d="M26.9168,25.075v-8.359h4.161l0.1951,5.506z" fill="#D9D9D9"/>
</g>
<path id="Star 1_2" d="M33.1584,0l0.8728,3.524l3.2446,-1.501l-2.1563,2.8934l3.1732,1.6524l-3.5616,0.084l0.7123,3.5612l-2.285,-2.789l-2.285,2.789l0.7123,-3.5612l-3.5616,-0.084l3.1732,-1.6524l-2.1563,-2.8934l3.2446,1.501z" fill="#FDA600"/>
<path id="Vector 3_2" d="M33.1584,30.912h-5.0063c-0.5201,3.662 -2.6873,7.319 -3.7059,8.69c5.8254,-2.388 8.2354,-6.789 8.7122,-8.69z" fill="#FDA600"/>
</g></svg>